:SAMPLES-PER-SECOND 30
:FULLY-SPECIFIED
:DEGREES
240
root  33.9672 39.5748 -31.6214 23.5327 84.6805 20.3799
RightUpLeg  -18.7861 -6.84007 -5.80001
RightLeg  39.5708 -13.3243 -11.7897
RightFoot  -6.06095 -0.0261586 -0.331626
RightToes  0.00048216 0.542163 -0.142577
Spine  46.3694 -0.235107 -0.484291
Spine1  7.47129 -0.462453 -0.240178
HEad  -12.6481 -5.43267 0.724254
LeftShoulder1  10.9796 -17.4604 -45.652
LeftArm  -3.53641 10.8771 -19.7878
LeftForeArm  17.5507 -12.2903 -6.706
LeftHand  -0.25398 0.0180481 5.50724
RightShoulder  7.20184 12.9504 37.7244
RightArm  13.339 -3.00465 28.087
RightForeArm  -18.5677 23.1991 5.94521
RightHand  -2.64533 6.8072 -25.1896
LeftUpLeg  -16.973 7.41709 1.13249
LeftLeg  1.16595 23.7029 -9.0826
LeftFoot  10.5755 -1.76757 8.77558
LeftToes  1.06245e-005 4.65855e-005 -8.18504e-006
241
root  33.6592 39.5274 -31.4734 28.1006 83.8974 25.4957
RightUpLeg  -15.7239 -9.10357 -7.44563
RightLeg  42.2368 -13.4247 -12.9913
RightFoot  -7.62637 -0.0163269 -1.10831
RightToes  0.00048216 0.542163 -0.142577
Spine  42.493 0.0085064 -1.34923
Spine1  7.69952 -0.643365 0.00751871
HEad  -9.57178 -6.43497 1.28151
LeftShoulder1  10.6545 -16.9206 -45.4684
LeftArm  -2.22788 17.7044 -19.8788
LeftForeArm  16.7876 -14.596 -5.92753
LeftHand  -0.25398 0.0180481 5.50724
RightShoulder  6.8979 12.2584 37.721
RightArm  10.7809 -8.0103 28.4939
RightForeArm  -16.1181 25.7601 6.29605
RightHand  -2.6299 6.7866 -25.0866
LeftUpLeg  -16.1405 6.53046 0.891992
LeftLeg  -0.551816 25.0562 -9.66743
LeftFoot  11.7018 -1.87579 8.83223
LeftToes  1.06245e-005 4.65855e-005 -8.18504e-006
242
root  33.3117 39.471 -31.3117 27.8793 82.8152 26.0647
RightUpLeg  -12.0872 -11.8732 -9.24789
RightLeg  43.1194 -13.228 -13.207
RightFoot  -8.87872 -0.0158107 -2.03175
RightToes  0.00048216 0.542163 -0.142577
Spine  39.2758 0.269928 -1.89034
Spine1  7.5712 -0.524319 0.0546392
HEad  -6.62335 -7.52612 1.58074
LeftShoulder1  10.2811 -16.3149 -45.2103
LeftArm  -1.99031 23.4051 -20.1901
LeftForeArm  16.3771 -16.3121 -5.24975
LeftHand  -0.25398 0.0180481 5.50724
RightShoulder  6.56599 11.6099 37.417
RightArm  8.31058 -12.3321 28.9231
RightForeArm  -13.6639 27.8422 6.70188
RightHand  -2.47205 6.30637 -24.5681
LeftUpLeg  -15.1764 6.32539 0.949416
LeftLeg  -1.88518 26.5118 -10.1499
LeftFoot  12.5498 -1.89009 8.55173
LeftToes  1.06245e-005 4.65855e-005 -8.18504e-006
243
root  32.9129 39.4316 -31.1238 24.485 81.2892 23.7975
RightUpLeg  -7.9704 -15.0612 -11.3973
RightLeg  42.6641 -13.6846 -13.4193
RightFoot  -9.93962 -0.0392096 -2.21496
RightToes  0.00048216 0.542163 -0.142577
Spine  36.9222 0.570709 -2.22541
Spine1  7.11581 -0.159513 -0.189213
HEad  -3.8726 -8.34212 1.57148
LeftShoulder1  9.94633 -15.695 -45.1506
LeftArm  -2.16088 28.0013 -20.2203
LeftForeArm  15.5744 -17.6608 -4.78134
LeftHand  -0.25398 0.0180481 5.50724
RightShoulder  6.29548 11.0678 37.1879
RightArm  6.59568 -15.6389 29.1611
RightForeArm  -12.363 29.163 6.96717
RightHand  -2.39556 5.99375 -24.4599
LeftUpLeg  -13.7329 6.4801 1.34901
LeftLeg  -3.44435 28.1306 -10.7573
LeftFoot  13.1572 -1.88741 8.30404
LeftToes  1.06245e-005 4.65855e-005 -8.18504e-006
244
root  32.4444 39.3932 -30.9001 20.1008 79.4094 20.4276
RightUpLeg  -4.11526 -18.7954 -13.7242
RightLeg  41.8642 -15.3818 -14.5484
RightFoot  -11.2686 -0.0762999 -2.28714
RightToes  0.00048216 0.542163 -0.142577
Spine  34.7174 0.793911 -2.24695
Spine1  6.69991 0.310395 -0.710285
HEad  -1.31979 -8.80598 1.49571
LeftShoulder1  9.63992 -15.108 -45.1405
LeftArm  -2.70416 31.5326 -20.2221
LeftForeArm  14.8148 -18.7569 -4.46784
LeftHand  -0.25398 0.0180481 5.50724
RightShoulder  6.12674 10.6278 37.3349
RightArm  5.45831 -17.8167 29.0726
RightForeArm  -12.0482 29.6817 7.08347
RightHand  -2.50584 6.30684 -24.8852
LeftUpLeg  -12.4425 6.82091 2.09343
LeftLeg  -5.03272 29.6795 -11.3991
LeftFoot  13.9833 -1.89679 8.04606
LeftToes  1.06245e-005 4.65855e-005 -8.18504e-006
245
root  31.8892 39.3211 -30.6368 15.2747 77.2707 16.345
RightUpLeg  -0.974973 -22.7999 -15.82
RightLeg  41.2741 -17.586 -16.1141
RightFoot  -12.2091 -0.10844 -3.64325
RightToes  0.00048216 0.542163 -0.142577
Spine  32.3777 0.931211 -1.90953
Spine1  6.40625 0.765106 -1.18159
HEad  1.1439 -9.12083 1.47317
LeftShoulder1  9.29762 -14.5061 -44.9872
LeftArm  -3.9028 34.1652 -20.7966
LeftForeArm  14.6348 -19.7948 -4.22929
LeftHand  -0.25398 0.0180481 5.50724
RightShoulder  5.99811 10.2471 37.5904
RightArm  4.4776 -19.2185 28.9106
RightForeArm  -12.1564 29.7946 7.11771
RightHand  -2.66382 6.83857 -25.2965
LeftUpLeg  -11.7941 7.54768 3.33537
LeftLeg  -5.8191 31.4636 -11.7826
LeftFoot  14.9708 -1.82675 7.40993
LeftToes  1.06245e-005 4.65855e-005 -8.18504e-006
246
root  31.2293 39.2093 -30.3186 11.1045 74.8553 12.9724
RightUpLeg  1.79685 -26.4916 -17.7683
RightLeg  40.1684 -18.4564 -16.2321
RightFoot  -11.5881 -0.0907027 -5.15869
RightToes  0.00048216 0.542163 -0.142577
Spine  30.3532 1.11526 -1.7451
Spine1  6.12035 1.0844 -1.22881
HEad  3.3941 -9.45457 1.37144
LeftShoulder1  8.92487 -13.8675 -44.7626
LeftArm  -5.69643 36.0797 -22.0144
LeftForeArm  14.7105 -21.0664 -4.0841
LeftHand  -0.25398 0.0180481 5.50724
RightShoulder  5.85988 9.92976 37.5922
RightArm  3.42536 -20.2822 28.971
RightForeArm  -12.4519 29.9836 7.18066
RightHand  -2.74436 7.13117 -25.449
LeftUpLeg  -11.1991 8.53021 4.90403
LeftLeg  -6.33355 33.6953 -12.1199
LeftFoot  15.6273 -1.65987 6.51026
LeftToes  1.06245e-005 4.65855e-005 -8.18504e-006
247
root  30.4485 39.0588 -29.924 8.59857 72.2335 11.4941
RightUpLeg  4.67332 -29.3083 -19.7508
RightLeg  37.5782 -16.945 -13.7922
RightFoot  -10.4388 -0.0483531 -3.34267
RightToes  0.00048216 0.542163 -0.142577
Spine  28.7684 1.36664 -2.25189
Spine1  5.91925 1.1891 -0.890259
HEad  5.2075 -9.91098 1.1252
LeftShoulder1  8.59006 -13.2791 -44.5856
LeftArm  -7.66221 37.3004 -23.4042
LeftForeArm  14.6825 -22.6048 -4.13564
LeftHand  -0.25398 0.0180481 5.50724
RightShoulder  5.7386 9.69061 37.4687
RightArm  2.50121 -21.1051 29.2846
RightForeArm  -12.8697 30.3095 7.28509
RightHand  -2.7804 7.26903 -25.5016
LeftUpLeg  -10.2807 9.26583 6.38091
LeftLeg  -7.22212 35.8856 -12.4706
LeftFoot  15.8919 -1.3809 5.29197
LeftToes  1.06245e-005 4.65855e-005 -8.18504e-006
248
root  29.537 38.8655 -29.4494 6.97931 69.4738 10.7609
RightUpLeg  7.19933 -30.5383 -20.8016
RightLeg  33.8029 -14.02 -10.1508
RightFoot  -11.5539 -0.0530376 2.57887
RightToes  0.00048216 0.542163 -0.142577
Spine  27.0555 1.49461 -2.98191
Spine1  6.05657 1.16878 -0.747525
HEad  6.75645 -10.5771 0.816649
LeftShoulder1  8.30365 -12.7884 -44.3865
LeftArm  -9.41045 37.775 -24.6132
LeftForeArm  14.9898 -24.2116 -4.38478
LeftHand  -0.25398 0.0180481 5.50724
RightShoulder  5.64817 9.47277 37.501
RightArm  2.13915 -21.5144 29.8552
RightForeArm  -13.2848 30.4146 7.33263
RightHand  -2.82185 7.41929 -25.5771
LeftUpLeg  -9.54069 9.91519 7.9099
LeftLeg  -8.06956 37.9668 -12.6033
LeftFoot  16.4149 -0.890396 3.20142
LeftToes  1.06245e-005 4.65855e-005 -8.18504e-006
249
root  28.4996 38.6488 -28.9302 4.48108 66.4751 8.53387
RightUpLeg  8.13567 -29.5359 -19.233
RightLeg  30.2694 -11.3152 -7.27933
RightFoot  -15.6097 0.206072 8.42665
RightToes  0.00048216 0.542163 -0.142577
Spine  24.9066 1.25317 -2.79562
Spine1  6.60688 1.18151 -1.32922
HEad  8.35113 -11.2 0.450111
LeftShoulder1  8.02738 -12.3093 -44.2003
LeftArm  -10.935 37.5084 -25.5482
LeftForeArm  16.2065 -25.882 -4.69122
LeftHand  -0.25398 0.0180481 5.50724
RightShoulder  5.55825 9.22669 37.631
RightArm  2.58973 -21.3423 30.7796
RightForeArm  -13.6021 30.0233 7.24707
RightHand  -2.81125 7.38194 -25.5562
LeftUpLeg  -9.56777 11.3689 10.2683
LeftLeg  -7.90885 40.4349 -12.2316
LeftFoot  16.8508 -0.269737 0.650393
LeftToes  1.06245e-005 4.65855e-005 -8.18504e-006
